<?xml version="1.0" standalone="no"?>
<!DOCTYPE svg PUBLIC "-//W3C//DTD SVG 20010904//EN"
 "http://www.w3.org/TR/2001/REC-SVG-20010904/DTD/svg10.dtd">
<svg version="1.0" xmlns="http://www.w3.org/2000/svg"
 width="700.000000pt" height="700.000000pt" viewBox="0 0 700.000000 700.000000"
 preserveAspectRatio="xMidYMid meet">
<metadata>
Created by potrace 1.14, written by Peter Selinger 2001-2017
</metadata>
<g transform="translate(0.000000,700.000000) scale(0.100000,-0.100000)"
fill="#000000" stroke="none">
<path d="M1065 6407 c-100 -30 -156 -84 -219 -211 -58 -118 -100 -245 -122
-376 -26 -149 -26 -477 1 -610 2 -13 7 -42 10 -65 3 -22 8 -47 10 -55 2 -8 7
-31 10 -50 3 -19 13 -62 21 -95 9 -33 18 -69 20 -80 5 -27 29 -105 76 -253
l40 -123 -27 -57 c-15 -31 -31 -65 -36 -75 -56 -108 -156 -423 -198 -622 -66
-316 -85 -724 -46 -1015 2 -19 7 -57 11 -85 3 -27 8 -58 10 -68 1 -10 -1 -15
-5 -13 -4 3 -50 15 -102 26 -52 12 -103 24 -114 26 -106 24 -139 24 -216 -1
-61 -21 -118 -71 -154 -136 -27 -48 -30 -63 -29 -134 2 -91 16 -130 69 -193
47 -54 106 -83 225 -110 52 -12 163 -38 245 -58 83 -19 165 -38 184 -41 104
-16 109 -20 180 -139 79 -131 124 -194 207 -290 34 -39 59 -75 56 -80 -4 -5
-50 -47 -102 -93 -126 -112 -128 -113 -157 -178 -49 -107 -25 -239 58 -322 67
-66 184 -101 268 -79 81 21 89 27 277 195 102 91 116 103 122 103 3 0 26 -13
51 -28 52 -32 278 -145 360 -180 122 -51 424 -144 541 -165 14 -3 75 -14 135
-26 115 -21 163 -28 255 -37 30 -3 66 -7 80 -10 57 -9 267 -18 455 -17 246 0
339 6 608 38 392 48 877 208 1178 391 31 19 59 34 61 34 5 0 23 -15 118 -100
212 -188 235 -202 340 -203 213 -2 354 215 266 408 -26 56 -35 66 -169 188
l-97 88 63 72 c84 97 129 160 208 291 l66 111 94 22 c52 13 103 25 114 27 240
53 448 107 483 125 113 59 175 207 138 332 -30 104 -117 189 -209 204 -23 4
-49 9 -58 10 -13 3 -62 -5 -124 -19 -142 -32 -217 -48 -220 -45 -2 2 3 42 11
89 27 169 36 449 21 665 -24 362 -135 794 -281 1097 l-37 77 40 123 c62 194
123 433 137 543 3 22 7 46 9 53 12 36 20 177 19 347 -1 205 -16 305 -69 471
-37 111 -110 254 -153 298 -85 89 -181 109 -331 70 -464 -120 -926 -340 -1329
-634 l-44 -32 -112 31 c-62 17 -124 34 -137 36 -13 3 -58 11 -99 19 -170 33
-341 49 -520 49 -91 0 -284 -10 -332 -18 -13 -2 -42 -6 -65 -9 -34 -4 -201
-36 -263 -51 -14 -3 -152 -41 -191 -52 -10 -3 -46 16 -85 45 -375 272 -801
476 -1254 602 -127 36 -192 43 -245 27z m430 -704 c117 -46 277 -121 395 -184
88 -48 273 -170 401 -265 82 -62 168 -119 191 -129 68 -27 138 -21 271 25 280
95 450 124 732 125 298 0 482 -29 748 -120 184 -63 254 -62 354 6 23 16 47 35
55 41 17 17 108 84 188 140 241 167 487 294 774 399 91 33 91 33 103 -51 13
-98 5 -393 -12 -420 -2 -3 -6 -26 -10 -50 -13 -91 -76 -323 -139 -511 -84
-251 -84 -273 -2 -436 166 -333 240 -588 281 -983 6 -59 7 -378 1 -420 -2 -14
-7 -54 -11 -90 -8 -81 -28 -181 -57 -288 -17 -62 -28 -84 -43 -89 -11 -3 -21
-6 -22 -5 -2 0 -17 -4 -35 -9 -18 -5 -62 -16 -98 -24 -54 -12 -340 -78 -390
-90 -8 -2 -46 -11 -85 -20 -38 -8 -106 -24 -150 -35 -44 -10 -94 -21 -111 -24
-202 -35 -311 -209 -249 -396 19 -57 63 -105 228 -250 79 -70 94 -87 82 -96
-8 -6 -64 -32 -125 -58 -217 -93 -536 -175 -780 -201 -25 -2 -65 -7 -90 -10
-153 -17 -485 -23 -640 -11 -113 9 -191 16 -230 21 -78 10 -117 16 -135 19
-11 2 -40 7 -65 11 -198 32 -528 137 -682 217 l-40 21 24 21 c112 100 188 166
212 187 38 32 80 95 96 142 42 129 -25 290 -143 345 -39 18 -239 72 -326 87
-17 3 -57 12 -89 20 -55 15 -211 51 -262 61 -14 3 -52 12 -85 21 -33 8 -71 17
-85 19 -14 3 -33 7 -42 10 -10 3 -30 7 -45 10 -61 10 -91 25 -96 47 -3 12 -14
58 -25 102 -12 44 -24 96 -27 115 -3 19 -8 42 -10 50 -2 8 -7 44 -11 80 -3 36
-8 83 -10 105 -5 60 -6 346 0 396 3 24 8 69 11 99 7 72 23 174 36 230 6 25 13
56 15 70 23 127 107 357 202 555 101 210 102 226 20 465 -75 217 -123 393
-144 525 -3 17 -7 36 -9 43 -9 26 -19 169 -19 267 0 104 6 162 23 233 2 6 41
-8 186 -65z"/>
<path d="M4549 3920 c-85 -26 -135 -56 -193 -115 -276 -281 -62 -761 330 -739
166 9 299 95 369 239 107 220 23 475 -191 583 -33 16 -75 33 -94 37 -66 15
-167 12 -221 -5z"/>
<path d="M2229 3877 c-162 -59 -263 -179 -290 -347 -44 -266 168 -506 441
-499 149 4 269 70 351 192 148 222 66 517 -177 636 -60 30 -81 35 -164 38 -81
3 -105 0 -161 -20z"/>
<path d="M3146 2618 c-56 -12 -109 -43 -149 -87 -61 -67 -81 -124 -78 -216 3
-94 34 -139 231 -336 209 -208 233 -224 350 -224 117 0 141 16 350 224 207
206 232 245 231 355 0 76 -25 138 -77 196 -36 40 -93 76 -138 87 -34 8 -680 9
-720 1z"/>
</g>
</svg>
